<mxfile host="app.diagrams.net" modified="2022-09-21T16:36:20.516Z" agent="5.0 (X11)" etag="2hK3aGn1EiFrQ7bCayU0" version="20.3.3" type="github">
  <diagram id="R94y2VKNwVuYraGozIJY" name="Page-1">
    <mxGraphModel dx="964" dy="491" grid="1" gridSize="10" guides="1" tooltips="1" connect="1" arrows="1" fold="1" page="1" pageScale="1" pageWidth="827" pageHeight="1169" background="#B3B3B3" math="0" shadow="0">
      <root>
        <mxCell id="0" />
        <mxCell id="1" parent="0" />
        <mxCell id="IPwLy8EfbPIPgKfgSnDq-2" value="" style="rounded=0;whiteSpace=wrap;html=1;fillColor=#E6E6E6;" vertex="1" parent="1">
          <mxGeometry x="202" y="410" width="401" height="910" as="geometry" />
        </mxCell>
        <mxCell id="IPwLy8EfbPIPgKfgSnDq-3" value="" style="rounded=0;whiteSpace=wrap;html=1;" vertex="1" parent="1">
          <mxGeometry x="4" width="816" height="70" as="geometry" />
        </mxCell>
        <mxCell id="IPwLy8EfbPIPgKfgSnDq-4" value="" style="rounded=0;whiteSpace=wrap;html=1;" vertex="1" parent="1">
          <mxGeometry y="100" width="140" height="520" as="geometry" />
        </mxCell>
        <mxCell id="IPwLy8EfbPIPgKfgSnDq-6" value="" style="rounded=0;whiteSpace=wrap;html=1;" vertex="1" parent="1">
          <mxGeometry x="660" y="100" width="160" height="520" as="geometry" />
        </mxCell>
        <mxCell id="IPwLy8EfbPIPgKfgSnDq-7" value="" style="rounded=0;whiteSpace=wrap;html=1;" vertex="1" parent="1">
          <mxGeometry x="202" y="100" width="398" height="120" as="geometry" />
        </mxCell>
        <mxCell id="IPwLy8EfbPIPgKfgSnDq-8" value="" style="rounded=0;whiteSpace=wrap;html=1;" vertex="1" parent="1">
          <mxGeometry x="202" y="240" width="398" height="80" as="geometry" />
        </mxCell>
        <mxCell id="IPwLy8EfbPIPgKfgSnDq-9" value="" style="rounded=0;whiteSpace=wrap;html=1;" vertex="1" parent="1">
          <mxGeometry x="202" y="340" width="398" height="40" as="geometry" />
        </mxCell>
        <mxCell id="IPwLy8EfbPIPgKfgSnDq-10" value="img" style="whiteSpace=wrap;html=1;aspect=fixed;" vertex="1" parent="1">
          <mxGeometry x="10" y="15" width="40" height="40" as="geometry" />
        </mxCell>
        <mxCell id="IPwLy8EfbPIPgKfgSnDq-13" value="input&lt;span style=&quot;white-space: pre;&quot;&gt;	&lt;/span&gt;&lt;span style=&quot;white-space: pre;&quot;&gt;	&lt;/span&gt;" style="rounded=0;whiteSpace=wrap;html=1;" vertex="1" parent="1">
          <mxGeometry x="50" y="15" width="90" height="40" as="geometry" />
        </mxCell>
        <mxCell id="IPwLy8EfbPIPgKfgSnDq-14" value="img" style="rounded=0;whiteSpace=wrap;html=1;" vertex="1" parent="1">
          <mxGeometry x="90" y="20" width="40" height="30" as="geometry" />
        </mxCell>
        <mxCell id="IPwLy8EfbPIPgKfgSnDq-15" value="" style="rounded=0;whiteSpace=wrap;html=1;" vertex="1" parent="1">
          <mxGeometry x="302.5" width="200" height="70" as="geometry" />
        </mxCell>
        <mxCell id="IPwLy8EfbPIPgKfgSnDq-16" value="button" style="whiteSpace=wrap;html=1;aspect=fixed;" vertex="1" parent="1">
          <mxGeometry x="310" y="10" width="55" height="55" as="geometry" />
        </mxCell>
        <mxCell id="IPwLy8EfbPIPgKfgSnDq-17" value="button" style="whiteSpace=wrap;html=1;aspect=fixed;" vertex="1" parent="1">
          <mxGeometry x="373.5" y="10" width="55" height="55" as="geometry" />
        </mxCell>
        <mxCell id="IPwLy8EfbPIPgKfgSnDq-18" value="button" style="whiteSpace=wrap;html=1;aspect=fixed;" vertex="1" parent="1">
          <mxGeometry x="440" y="10" width="55" height="55" as="geometry" />
        </mxCell>
        <mxCell id="IPwLy8EfbPIPgKfgSnDq-19" value="" style="rounded=0;whiteSpace=wrap;html=1;" vertex="1" parent="1">
          <mxGeometry x="670" y="5" width="150" height="60" as="geometry" />
        </mxCell>
        <mxCell id="IPwLy8EfbPIPgKfgSnDq-23" value="button" style="rounded=0;whiteSpace=wrap;html=1;" vertex="1" parent="1">
          <mxGeometry x="670" y="22.5" width="40" height="30" as="geometry" />
        </mxCell>
        <mxCell id="IPwLy8EfbPIPgKfgSnDq-29" style="edgeStyle=orthogonalEdgeStyle;rounded=0;orthogonalLoop=1;jettySize=auto;html=1;exitX=1;exitY=0.5;exitDx=0;exitDy=0;entryX=0;entryY=0.25;entryDx=0;entryDy=0;" edge="1" parent="1">
          <mxGeometry relative="1" as="geometry">
            <mxPoint x="750" y="40" as="sourcePoint" />
            <mxPoint x="760" y="30" as="targetPoint" />
          </mxGeometry>
        </mxCell>
        <mxCell id="IPwLy8EfbPIPgKfgSnDq-26" value="img" style="rounded=0;whiteSpace=wrap;html=1;" vertex="1" parent="1">
          <mxGeometry x="790" y="22.5" width="30" height="30" as="geometry" />
        </mxCell>
        <mxCell id="IPwLy8EfbPIPgKfgSnDq-30" value="&lt;font style=&quot;font-size: 19px;&quot;&gt;&amp;lt;ul&amp;gt;&lt;/font&gt;" style="rounded=0;whiteSpace=wrap;html=1;" vertex="1" parent="1">
          <mxGeometry x="10" y="110" width="120" height="240" as="geometry" />
        </mxCell>
        <mxCell id="IPwLy8EfbPIPgKfgSnDq-31" value="&lt;div align=&quot;left&quot;&gt;&lt;b&gt;&lt;font style=&quot;font-size: 8px;&quot;&gt;YOUR SHORTCUTS&lt;/font&gt;&lt;/b&gt;&lt;/div&gt;" style="rounded=0;whiteSpace=wrap;html=1;align=left;" vertex="1" parent="1">
          <mxGeometry x="10" y="380" width="120" height="20" as="geometry" />
        </mxCell>
        <mxCell id="IPwLy8EfbPIPgKfgSnDq-32" value="&lt;font style=&quot;font-size: 22px;&quot;&gt;&amp;lt;ul&amp;gt;&lt;/font&gt;" style="rounded=0;whiteSpace=wrap;html=1;" vertex="1" parent="1">
          <mxGeometry x="10" y="400" width="120" height="220" as="geometry" />
        </mxCell>
        <mxCell id="IPwLy8EfbPIPgKfgSnDq-34" value="&lt;div align=&quot;justify&quot;&gt;&lt;font style=&quot;font-size: 12px;&quot;&gt;span&lt;/font&gt;&lt;/div&gt;" style="rounded=0;whiteSpace=wrap;html=1;fontSize=8;align=right;" vertex="1" parent="1">
          <mxGeometry x="20" y="120" width="100" height="20" as="geometry" />
        </mxCell>
        <mxCell id="IPwLy8EfbPIPgKfgSnDq-35" value="&lt;font style=&quot;font-size: 12px;&quot;&gt;&lt;span style=&quot;white-space: pre;&quot;&gt;img&lt;/span&gt;&lt;br&gt;&lt;/font&gt;" style="rounded=0;whiteSpace=wrap;html=1;fontSize=8;" vertex="1" parent="1">
          <mxGeometry x="20" y="120" width="38" height="20" as="geometry" />
        </mxCell>
        <mxCell id="IPwLy8EfbPIPgKfgSnDq-37" value="footer" style="rounded=0;whiteSpace=wrap;html=1;fontSize=12;" vertex="1" parent="1">
          <mxGeometry x="10" y="590" width="120" height="25" as="geometry" />
        </mxCell>
        <mxCell id="IPwLy8EfbPIPgKfgSnDq-38" value="button" style="rounded=0;whiteSpace=wrap;html=1;" vertex="1" parent="1">
          <mxGeometry x="710" y="22.5" width="40" height="30" as="geometry" />
        </mxCell>
        <mxCell id="IPwLy8EfbPIPgKfgSnDq-39" value="button" style="rounded=0;whiteSpace=wrap;html=1;" vertex="1" parent="1">
          <mxGeometry x="750" y="22.5" width="40" height="30" as="geometry" />
        </mxCell>
        <mxCell id="IPwLy8EfbPIPgKfgSnDq-40" value="img" style="whiteSpace=wrap;html=1;aspect=fixed;fontSize=12;" vertex="1" parent="1">
          <mxGeometry x="212.5" y="115" width="90" height="90" as="geometry" />
        </mxCell>
        <mxCell id="IPwLy8EfbPIPgKfgSnDq-41" value="img" style="whiteSpace=wrap;html=1;aspect=fixed;fontSize=12;" vertex="1" parent="1">
          <mxGeometry x="310" y="115" width="90" height="90" as="geometry" />
        </mxCell>
        <mxCell id="IPwLy8EfbPIPgKfgSnDq-42" value="img" style="whiteSpace=wrap;html=1;aspect=fixed;fontSize=12;" vertex="1" parent="1">
          <mxGeometry x="405" y="115" width="90" height="90" as="geometry" />
        </mxCell>
        <mxCell id="IPwLy8EfbPIPgKfgSnDq-43" value="img" style="whiteSpace=wrap;html=1;aspect=fixed;fontSize=12;" vertex="1" parent="1">
          <mxGeometry x="502.5" y="115" width="90" height="90" as="geometry" />
        </mxCell>
        <mxCell id="IPwLy8EfbPIPgKfgSnDq-44" value="img" style="rounded=0;whiteSpace=wrap;html=1;fontSize=12;" vertex="1" parent="1">
          <mxGeometry x="212.5" y="245" width="37.5" height="25" as="geometry" />
        </mxCell>
        <mxCell id="IPwLy8EfbPIPgKfgSnDq-48" value="input" style="rounded=0;whiteSpace=wrap;html=1;fontSize=12;" vertex="1" parent="1">
          <mxGeometry x="265" y="245" width="325" height="25" as="geometry" />
        </mxCell>
        <mxCell id="IPwLy8EfbPIPgKfgSnDq-49" value="&lt;div align=&quot;right&quot;&gt;button&lt;/div&gt;" style="rounded=0;whiteSpace=wrap;html=1;fontSize=12;align=right;" vertex="1" parent="1">
          <mxGeometry x="212.5" y="280" width="107.5" height="30" as="geometry" />
        </mxCell>
        <mxCell id="IPwLy8EfbPIPgKfgSnDq-50" value="&lt;div align=&quot;right&quot;&gt;button&lt;/div&gt;" style="rounded=0;whiteSpace=wrap;html=1;fontSize=12;align=right;" vertex="1" parent="1">
          <mxGeometry x="347.25" y="280" width="107.5" height="30" as="geometry" />
        </mxCell>
        <mxCell id="IPwLy8EfbPIPgKfgSnDq-51" value="&lt;div align=&quot;right&quot;&gt;button&lt;/div&gt;" style="rounded=0;whiteSpace=wrap;html=1;fontSize=12;align=right;" vertex="1" parent="1">
          <mxGeometry x="482.5" y="280" width="107.5" height="30" as="geometry" />
        </mxCell>
        <mxCell id="IPwLy8EfbPIPgKfgSnDq-52" value="img" style="rounded=0;whiteSpace=wrap;html=1;fontSize=12;" vertex="1" parent="1">
          <mxGeometry x="215" y="280" width="50" height="30" as="geometry" />
        </mxCell>
        <mxCell id="IPwLy8EfbPIPgKfgSnDq-53" value="img" style="rounded=0;whiteSpace=wrap;html=1;fontSize=12;" vertex="1" parent="1">
          <mxGeometry x="347.25" y="280" width="50" height="30" as="geometry" />
        </mxCell>
        <mxCell id="IPwLy8EfbPIPgKfgSnDq-54" value="img" style="rounded=0;whiteSpace=wrap;html=1;fontSize=12;" vertex="1" parent="1">
          <mxGeometry x="482.5" y="280" width="50" height="30" as="geometry" />
        </mxCell>
        <mxCell id="IPwLy8EfbPIPgKfgSnDq-56" value="button" style="rounded=0;whiteSpace=wrap;html=1;fontSize=12;" vertex="1" parent="1">
          <mxGeometry x="208.62" y="345" width="91.38" height="30" as="geometry" />
        </mxCell>
        <mxCell id="IPwLy8EfbPIPgKfgSnDq-57" value="img" style="rounded=0;whiteSpace=wrap;html=1;fontSize=12;" vertex="1" parent="1">
          <mxGeometry x="333.02" y="345" width="43.97" height="30" as="geometry" />
        </mxCell>
        <mxCell id="IPwLy8EfbPIPgKfgSnDq-58" value="img" style="rounded=0;whiteSpace=wrap;html=1;fontSize=12;" vertex="1" parent="1">
          <mxGeometry x="396.03" y="345" width="43.97" height="30" as="geometry" />
        </mxCell>
        <mxCell id="IPwLy8EfbPIPgKfgSnDq-59" value="img" style="rounded=0;whiteSpace=wrap;html=1;fontSize=12;" vertex="1" parent="1">
          <mxGeometry x="460" y="345" width="43.97" height="30" as="geometry" />
        </mxCell>
        <mxCell id="IPwLy8EfbPIPgKfgSnDq-60" value="img" style="rounded=0;whiteSpace=wrap;html=1;fontSize=12;" vertex="1" parent="1">
          <mxGeometry x="525.52" y="345" width="43.97" height="30" as="geometry" />
        </mxCell>
        <mxCell id="IPwLy8EfbPIPgKfgSnDq-61" value="dropdown button" style="rounded=0;whiteSpace=wrap;html=1;fontSize=12;" vertex="1" parent="1">
          <mxGeometry x="20" y="330" width="100" height="20" as="geometry" />
        </mxCell>
        <mxCell id="IPwLy8EfbPIPgKfgSnDq-63" value="img" style="rounded=0;whiteSpace=wrap;html=1;fontSize=12;" vertex="1" parent="1">
          <mxGeometry x="218.13" y="430" width="43.75" height="30" as="geometry" />
        </mxCell>
        <mxCell id="IPwLy8EfbPIPgKfgSnDq-64" value="&amp;lt;h5&amp;gt;" style="rounded=0;whiteSpace=wrap;html=1;fontSize=12;" vertex="1" parent="1">
          <mxGeometry x="276.25" y="430" width="313.75" height="30" as="geometry" />
        </mxCell>
        <mxCell id="IPwLy8EfbPIPgKfgSnDq-65" value="&lt;font style=&quot;font-size: 21px;&quot;&gt;&amp;lt;p&amp;gt;&lt;/font&gt;" style="rounded=0;whiteSpace=wrap;html=1;fontSize=12;" vertex="1" parent="1">
          <mxGeometry x="218.13" y="480" width="371.87" height="60" as="geometry" />
        </mxCell>
        <mxCell id="IPwLy8EfbPIPgKfgSnDq-66" value="&lt;font style=&quot;font-size: 23px;&quot;&gt;img&lt;/font&gt;" style="rounded=0;whiteSpace=wrap;html=1;fontSize=12;" vertex="1" parent="1">
          <mxGeometry x="218.13" y="540" width="371.87" height="240" as="geometry" />
        </mxCell>
        <mxCell id="IPwLy8EfbPIPgKfgSnDq-67" value="" style="rounded=0;whiteSpace=wrap;html=1;fontSize=12;" vertex="1" parent="1">
          <mxGeometry x="218.13" y="780" width="371.87" height="60" as="geometry" />
        </mxCell>
        <mxCell id="IPwLy8EfbPIPgKfgSnDq-70" value="&lt;font style=&quot;font-size: 12px;&quot;&gt;like button&lt;br&gt;&lt;/font&gt;" style="rounded=0;whiteSpace=wrap;html=1;fontSize=19;" vertex="1" parent="1">
          <mxGeometry x="223.12" y="800" width="68.75" height="30" as="geometry" />
        </mxCell>
        <mxCell id="IPwLy8EfbPIPgKfgSnDq-71" value="&lt;font style=&quot;font-size: 8px;&quot;&gt;comment button&lt;br&gt;&lt;/font&gt;" style="rounded=0;whiteSpace=wrap;html=1;fontSize=19;" vertex="1" parent="1">
          <mxGeometry x="376.99" y="800" width="68.75" height="30" as="geometry" />
        </mxCell>
        <mxCell id="IPwLy8EfbPIPgKfgSnDq-72" value="&lt;font style=&quot;font-size: 12px;&quot;&gt;share button&lt;br&gt;&lt;/font&gt;" style="rounded=0;whiteSpace=wrap;html=1;fontSize=19;" vertex="1" parent="1">
          <mxGeometry x="513.12" y="800" width="68.75" height="30" as="geometry" />
        </mxCell>
        <mxCell id="IPwLy8EfbPIPgKfgSnDq-110" value="img" style="rounded=0;whiteSpace=wrap;html=1;fontSize=12;" vertex="1" parent="1">
          <mxGeometry x="216.56" y="880" width="43.75" height="30" as="geometry" />
        </mxCell>
        <mxCell id="IPwLy8EfbPIPgKfgSnDq-111" value="&amp;lt;h5&amp;gt;" style="rounded=0;whiteSpace=wrap;html=1;fontSize=12;" vertex="1" parent="1">
          <mxGeometry x="274.68" y="880" width="313.75" height="30" as="geometry" />
        </mxCell>
        <mxCell id="IPwLy8EfbPIPgKfgSnDq-112" value="&lt;font style=&quot;font-size: 21px;&quot;&gt;&amp;lt;p&amp;gt;&lt;/font&gt;" style="rounded=0;whiteSpace=wrap;html=1;fontSize=12;" vertex="1" parent="1">
          <mxGeometry x="216.56" y="930" width="371.87" height="60" as="geometry" />
        </mxCell>
        <mxCell id="IPwLy8EfbPIPgKfgSnDq-113" value="&lt;font style=&quot;font-size: 23px;&quot;&gt;img&lt;/font&gt;" style="rounded=0;whiteSpace=wrap;html=1;fontSize=12;" vertex="1" parent="1">
          <mxGeometry x="216.56" y="990" width="371.87" height="240" as="geometry" />
        </mxCell>
        <mxCell id="IPwLy8EfbPIPgKfgSnDq-114" value="" style="rounded=0;whiteSpace=wrap;html=1;fontSize=12;" vertex="1" parent="1">
          <mxGeometry x="216.56" y="1230" width="371.87" height="60" as="geometry" />
        </mxCell>
        <mxCell id="IPwLy8EfbPIPgKfgSnDq-115" value="&lt;font style=&quot;font-size: 12px;&quot;&gt;like button&lt;br&gt;&lt;/font&gt;" style="rounded=0;whiteSpace=wrap;html=1;fontSize=19;" vertex="1" parent="1">
          <mxGeometry x="221.55" y="1250" width="68.75" height="30" as="geometry" />
        </mxCell>
        <mxCell id="IPwLy8EfbPIPgKfgSnDq-116" value="&lt;font style=&quot;font-size: 8px;&quot;&gt;comment button&lt;br&gt;&lt;/font&gt;" style="rounded=0;whiteSpace=wrap;html=1;fontSize=19;" vertex="1" parent="1">
          <mxGeometry x="375.42" y="1250" width="68.75" height="30" as="geometry" />
        </mxCell>
        <mxCell id="IPwLy8EfbPIPgKfgSnDq-117" value="&lt;font style=&quot;font-size: 12px;&quot;&gt;share button&lt;br&gt;&lt;/font&gt;" style="rounded=0;whiteSpace=wrap;html=1;fontSize=19;" vertex="1" parent="1">
          <mxGeometry x="511.55" y="1250" width="68.75" height="30" as="geometry" />
        </mxCell>
        <mxCell id="IPwLy8EfbPIPgKfgSnDq-125" value="" style="endArrow=none;html=1;rounded=0;fontSize=8;" edge="1" parent="1">
          <mxGeometry relative="1" as="geometry">
            <mxPoint x="200" y="860" as="sourcePoint" />
            <mxPoint x="603" y="860" as="targetPoint" />
          </mxGeometry>
        </mxCell>
        <mxCell id="IPwLy8EfbPIPgKfgSnDq-128" value="&lt;div style=&quot;font-size: 12px;&quot; align=&quot;left&quot;&gt;Sponsored&lt;/div&gt;" style="rounded=0;whiteSpace=wrap;html=1;fontSize=8;fillColor=#FFFFFF;align=left;" vertex="1" parent="1">
          <mxGeometry x="670" y="110" width="80" height="20" as="geometry" />
        </mxCell>
        <mxCell id="IPwLy8EfbPIPgKfgSnDq-129" value="" style="rounded=0;whiteSpace=wrap;html=1;fontSize=12;fillColor=#FFFFFF;" vertex="1" parent="1">
          <mxGeometry x="670" y="150" width="140" height="180" as="geometry" />
        </mxCell>
        <mxCell id="IPwLy8EfbPIPgKfgSnDq-130" value="&amp;lt;a&amp;gt;" style="rounded=0;whiteSpace=wrap;html=1;fontSize=12;fillColor=#FFFFFF;align=right;" vertex="1" parent="1">
          <mxGeometry x="680" y="160" width="120" height="70" as="geometry" />
        </mxCell>
        <mxCell id="IPwLy8EfbPIPgKfgSnDq-132" value="img" style="rounded=0;whiteSpace=wrap;html=1;fontSize=12;fillColor=#FFFFFF;" vertex="1" parent="1">
          <mxGeometry x="680" y="165" width="80" height="60" as="geometry" />
        </mxCell>
        <mxCell id="IPwLy8EfbPIPgKfgSnDq-133" value="&amp;lt;a&amp;gt;" style="rounded=0;whiteSpace=wrap;html=1;fontSize=12;fillColor=#FFFFFF;align=right;" vertex="1" parent="1">
          <mxGeometry x="680" y="245" width="120" height="70" as="geometry" />
        </mxCell>
        <mxCell id="IPwLy8EfbPIPgKfgSnDq-134" value="img" style="rounded=0;whiteSpace=wrap;html=1;fontSize=12;fillColor=#FFFFFF;" vertex="1" parent="1">
          <mxGeometry x="680" y="250" width="80" height="60" as="geometry" />
        </mxCell>
        <mxCell id="IPwLy8EfbPIPgKfgSnDq-136" value="&lt;font style=&quot;font-size: 12px;&quot;&gt;Friend Request&lt;br&gt;&lt;/font&gt;" style="rounded=0;whiteSpace=wrap;html=1;fontSize=8;fillColor=#FFFFFF;align=left;" vertex="1" parent="1">
          <mxGeometry x="670" y="345" width="90" height="20" as="geometry" />
        </mxCell>
        <mxCell id="IPwLy8EfbPIPgKfgSnDq-137" value="" style="rounded=0;whiteSpace=wrap;html=1;fontSize=12;fillColor=#FFFFFF;" vertex="1" parent="1">
          <mxGeometry x="670" y="380" width="140" height="70" as="geometry" />
        </mxCell>
        <mxCell id="IPwLy8EfbPIPgKfgSnDq-138" value="img" style="rounded=0;whiteSpace=wrap;html=1;fontSize=12;fillColor=#FFFFFF;" vertex="1" parent="1">
          <mxGeometry x="672.5" y="392.5" width="37.5" height="45" as="geometry" />
        </mxCell>
        <mxCell id="IPwLy8EfbPIPgKfgSnDq-139" value="p" style="rounded=0;whiteSpace=wrap;html=1;fontSize=12;fillColor=#FFFFFF;" vertex="1" parent="1">
          <mxGeometry x="720" y="385" width="80" height="20" as="geometry" />
        </mxCell>
        <mxCell id="IPwLy8EfbPIPgKfgSnDq-140" value="button" style="rounded=0;whiteSpace=wrap;html=1;fontSize=12;fillColor=#FFFFFF;" vertex="1" parent="1">
          <mxGeometry x="720" y="417.5" width="35" height="20" as="geometry" />
        </mxCell>
        <mxCell id="IPwLy8EfbPIPgKfgSnDq-142" value="button" style="rounded=0;whiteSpace=wrap;html=1;fontSize=12;fillColor=#FFFFFF;" vertex="1" parent="1">
          <mxGeometry x="765" y="417.5" width="35" height="20" as="geometry" />
        </mxCell>
      </root>
    </mxGraphModel>
  </diagram>
</mxfile>
